<svg width="22" height="21" viewBox="0 0 22 21" fill="none" xmlns="http://www.w3.org/2000/svg">
<mask id="mask0_1_130" style="mask-type:luminance" maskUnits="userSpaceOnUse" x="0" y="-1" width="22" height="22">
<path d="M21.5143 -0.00286102H0.668579V20.8429H21.5143V-0.00286102Z" fill="white"/>
</mask>
<g mask="url(#mask0_1_130)">
<path fill-rule="evenodd" clip-rule="evenodd" d="M15.7948 12.489C15.5359 12.3596 14.267 11.7359 14.0307 11.6491C13.7944 11.5631 13.6225 11.5205 13.4496 11.7793C13.2776 12.0364 12.7834 12.6184 12.6331 12.7903C12.482 12.9632 12.3318 12.984 12.0738 12.8555C11.8158 12.7253 10.9838 12.4534 9.99794 11.5744C9.23096 10.8899 8.71241 10.0448 8.56215 9.78601C8.41189 9.52798 8.54565 9.38813 8.67507 9.25961C8.79146 9.14406 8.93303 8.95822 9.06245 8.80796C9.19187 8.65683 9.23443 8.54913 9.32042 8.37628C9.40728 8.20431 9.36384 8.05404 9.29871 7.92463C9.23443 7.79521 8.7185 6.52449 8.5031 6.00769C8.29377 5.50479 8.08097 5.5734 7.92289 5.56472C7.77176 5.55777 7.59978 5.55603 7.4278 5.55603C7.25582 5.55603 6.97615 5.62031 6.73989 5.87914C6.50277 6.13711 5.83658 6.76161 5.83658 8.03233C5.83658 9.30221 6.76074 10.5295 6.89015 10.7023C7.01957 10.8743 8.70981 13.4818 11.299 14.5996C11.9157 14.8654 12.396 15.0244 12.7704 15.1425C13.3888 15.3396 13.9516 15.3119 14.3964 15.245C14.8914 15.1711 15.9233 14.6204 16.1387 14.0177C16.3533 13.4149 16.3533 12.8981 16.289 12.7903C16.2246 12.6827 16.0536 12.6184 15.7948 12.489ZM11.0854 18.919H11.0819C9.54401 18.9192 8.03439 18.5059 6.71123 17.7221L6.39854 17.5363L3.14835 18.3891L4.01606 15.2206L3.81194 14.8958C2.95217 13.5272 2.49717 11.9433 2.49953 10.3271C2.50126 5.59338 6.35251 1.74213 11.0888 1.74213C13.3818 1.74213 15.5376 2.63676 17.1584 4.25925C17.9578 5.05537 18.5915 6.0021 19.0226 7.04468C19.4537 8.08725 19.6739 9.20496 19.6704 10.3332C19.6685 15.0669 15.8173 18.919 11.0854 18.919ZM18.3918 3.02676C17.4348 2.06344 16.2962 1.29963 15.0418 0.779584C13.7874 0.259538 12.4423 -0.00640153 11.0845 -0.00282543C5.39187 -0.00282543 0.757173 4.631 0.755436 10.3262C0.752798 12.1387 1.22826 13.9198 2.13386 15.4899L0.668579 20.8429L6.14405 19.4063C7.65874 20.2315 9.35611 20.6639 11.081 20.6639H11.0854C16.778 20.6639 21.4127 16.0301 21.4144 10.3341C21.4186 8.9767 21.1537 7.63201 20.6348 6.37773C20.116 5.12345 19.3536 3.9845 18.3918 3.02676Z" fill="white"/>
</g>
</svg>
